<svg width="703" height="511" viewBox="0 0 703 511" fill="none" xmlns="http://www.w3.org/2000/svg">
<path d="M203.142 253.669L218.928 326.269L278.278 258.751L302.453 280.12C302.453 280.12 218.372 405.282 184.817 397.102C151.262 388.923 160.4 341.442 153.269 290.405C146.137 239.367 203.142 253.669 203.142 253.669Z" fill="white"/>
<path d="M188.057 398.7C186.869 398.701 185.684 398.563 184.527 398.288C158.975 392.045 157.403 364.408 155.517 329.415C154.816 316.904 154.067 303.981 152.206 290.574C150.199 276.223 152.979 265.527 160.498 258.775C175.22 245.562 202.417 252.193 203.553 252.483C203.77 252.544 203.967 252.662 204.124 252.823C204.281 252.984 204.392 253.184 204.448 253.403L219.726 323.583L277.48 257.856C277.697 257.612 278.001 257.464 278.326 257.444C278.643 257.428 278.954 257.532 279.197 257.735L303.372 279.127C303.592 279.32 303.734 279.586 303.77 279.877C303.805 280.167 303.732 280.461 303.565 280.7C300.036 285.758 223.764 398.675 188.057 398.7ZM186.655 253.04C178.363 253.04 168.645 254.589 161.996 260.59C155.348 266.592 152.592 276.756 154.478 290.235C156.364 303.715 157.089 316.71 157.814 329.27C159.748 363.271 161.295 390.109 185.083 395.941C198.307 399.135 222.555 380.138 255.191 340.91C277.722 313.83 297.159 285.589 300.761 280.41L278.351 260.518L219.823 327.14C219.677 327.311 219.487 327.437 219.273 327.505C219.06 327.574 218.832 327.581 218.614 327.527C218.395 327.471 218.196 327.355 218.038 327.193C217.88 327.031 217.77 326.828 217.72 326.608L202.103 254.782C197.027 253.671 191.85 253.087 186.655 253.04Z" fill="#3C4242"/>
<path d="M9.52501 467.96C4.69001 500.678 5.43943 509.681 5.43943 509.681L205.899 505.664L179.524 390.98L25.819 407.46C18.2416 426.985 12.779 447.268 9.52501 467.96Z" fill="#3C4242"/>
<path d="M5.43942 510.891C5.13716 510.898 4.84361 510.789 4.61888 510.587C4.39415 510.384 4.25526 510.103 4.23067 509.802C4.23067 509.415 3.45707 500.267 8.31625 467.791C11.6056 447.001 17.1002 426.623 24.7069 407C24.791 406.798 24.927 406.623 25.1012 406.491C25.2753 406.359 25.4813 406.276 25.6981 406.25L179.379 389.77C179.671 389.733 179.968 389.806 180.209 389.976C180.451 390.147 180.62 390.401 180.684 390.689L207.083 505.397C207.123 505.574 207.122 505.757 207.08 505.934C207.038 506.11 206.956 506.274 206.841 506.414C206.735 506.557 206.596 506.674 206.437 506.754C206.277 506.833 206.101 506.875 205.923 506.874L5.4636 510.891H5.43942ZM10.7096 468.154C6.81739 494.144 6.55148 505.18 6.59983 508.447L204.376 504.502L178.581 392.287L26.6892 408.573C19.3054 427.822 13.9498 447.791 10.7096 468.154Z" fill="#3C4242"/>
<path d="M7.42113 455.691L195.382 434.516C177.879 322.687 168.958 381.808 190.112 277.216L212.401 271.166C202.054 217.127 176.622 193.411 176.622 193.411C151.794 148.665 91.26 174.85 91.26 174.85C91.26 174.85 21.8294 180.416 3.91575 240.48C-7.95417 280.216 12.4253 335.634 14.9637 384.01C15.6648 397.538 10.999 396.981 7.42113 455.691Z" fill="#8A33FD"/>
<path d="M143.043 203.527C136.056 202.462 129.336 201.276 122.107 203.212C111.374 206.14 101.921 212.36 90.8732 214.949C79.0758 217.684 66.2147 217.78 54.1514 218.337C50.6218 218.506 54.4415 222.983 51.3954 221.168C40.6859 214.78 39.8398 200.235 38.8486 189.321C36.2173 164.104 37.0306 138.645 41.2661 113.648C45.3275 91.8678 49.534 71.2252 70.6387 60.0932C86.014 51.9862 107.627 47.1462 124.476 53.1478C141.326 59.1494 155.396 74.5648 161.271 91.6258C167.774 110.502 169.901 129.644 180.828 146.923C185.663 154.546 191.635 161.975 192.916 170.905C194.318 181.674 187.936 192.516 178.774 198.324C169.611 204.132 158.176 205.584 147.346 204.132C145.847 203.962 144.445 203.744 143.043 203.527Z" fill="white"/>
<path d="M52.4112 222.814C51.8219 222.751 51.2572 222.543 50.7673 222.209C39.9611 215.772 38.6798 201.905 37.7612 190.749V189.418C35.1986 160.789 35.9964 135.936 40.1787 113.406C44.095 92.376 48.1564 70.6202 70.1798 59.0042C84.0321 51.7442 106.708 45.4764 124.985 51.9862C141.907 58.012 156.243 73.0402 162.504 91.2144C164.632 97.3612 166.3 103.605 167.919 109.655C171.401 122.553 174.664 134.726 181.941 146.245C182.811 147.649 183.73 149.028 184.648 150.408C188.807 156.675 193.11 163.161 194.077 170.736C195.479 181.384 189.58 192.879 179.402 199.316C168.524 206.213 155.904 206.382 147.25 205.317L142.922 204.688L141.883 204.543C135.331 203.527 129.118 202.583 122.543 204.374C117.575 205.851 112.726 207.703 108.038 209.915C102.601 212.495 96.9357 214.561 91.1154 216.086C80.8343 218.123 70.3855 219.192 59.9055 219.281L54.1518 219.523C54.0008 219.487 53.8435 219.487 53.6925 219.523C53.6501 219.804 53.6501 220.089 53.6925 220.37C53.8134 220.735 53.8228 221.128 53.7194 221.499C53.6161 221.87 53.4047 222.201 53.1123 222.451C52.9159 222.634 52.6735 222.759 52.4112 222.814ZM107.844 51.72C95.0683 52.0096 82.5325 55.2565 71.2194 61.2064C50.2355 72.2658 46.2949 93.4166 42.4753 113.89C38.3172 136.202 37.6403 160.838 40.0578 189.249L40.1787 190.58C41.0973 200.913 42.2094 213.715 51.3233 219.62C51.323 219.04 51.519 218.477 51.8794 218.022C52.1573 217.709 52.5004 217.46 52.8845 217.292C53.2687 217.125 53.6847 217.044 54.1035 217.054L59.8571 216.812C70.1767 216.786 80.4713 215.798 90.6077 213.86C96.2477 212.359 101.735 210.334 106.998 207.81C111.784 205.561 116.729 203.668 121.793 202.147C128.901 200.235 135.356 201.228 142.173 202.147L143.213 202.317C144.615 202.51 146.017 202.728 147.443 202.897C155.735 203.938 167.75 203.793 178.025 197.259C187.404 191.33 192.868 180.779 191.587 171.05C190.668 164.032 186.534 157.789 182.545 151.69C181.627 150.287 180.684 148.883 179.789 147.479C172.319 135.646 168.862 122.699 165.502 110.211C163.882 104.21 162.214 98.1114 160.135 91.9162C154.091 74.4196 140.287 59.9722 124.066 54.1884C118.837 52.4543 113.352 51.6197 107.844 51.72Z" fill="#3C4242"/>
<path d="M151.19 102.976C151.19 102.976 163.664 132.016 159.942 154.764C159.064 161.138 156.348 167.117 152.128 171.97C147.907 176.823 142.364 180.338 136.177 182.085L138.595 221.943C138.595 221.943 140.07 242.319 114.903 240.746C107.622 240.277 100.58 237.957 94.442 234.007C88.3045 230.056 83.274 224.605 79.8256 218.168L72.3555 145.059C72.3555 145.059 99.6007 126.982 95.4909 100.822C95.6602 100.822 130.303 114.979 151.19 102.976Z" fill="white"/>
<path d="M117.78 242.029H115C107.507 241.503 100.268 239.089 93.9573 235.01C87.6466 230.931 82.4692 225.32 78.907 218.7C78.8857 218.564 78.8857 218.425 78.907 218.289L71.437 145.18C71.4234 144.959 71.4675 144.738 71.565 144.538C71.6624 144.339 71.8099 144.168 71.993 144.043C72.2347 143.874 98.5855 126.087 94.5724 101.015C94.5455 100.803 94.574 100.588 94.6552 100.39C94.7364 100.193 94.8675 100.019 95.0356 99.8877C95.2038 99.7559 95.4032 99.6702 95.6144 99.6388C95.8256 99.6074 96.0414 99.6315 96.2405 99.7086C96.579 99.7086 130.569 113.478 150.707 101.911C150.864 101.845 151.032 101.811 151.202 101.811C151.373 101.811 151.541 101.845 151.698 101.911C152.018 102.035 152.278 102.277 152.423 102.588C152.931 103.774 164.994 132.137 161.247 155.054C160.335 161.474 157.637 167.507 153.46 172.463C149.283 177.419 143.796 181.097 137.628 183.078L140.046 221.967C140.145 224.579 139.728 227.184 138.819 229.634C137.911 232.084 136.528 234.331 134.751 236.245C130.811 240.069 125.13 242.029 117.78 242.029ZM81.1795 217.829C84.5654 224.022 89.4532 229.263 95.393 233.069C101.333 236.875 108.134 239.124 115.17 239.609C123.123 240.117 129.094 238.399 132.938 234.551C136.028 231.15 137.683 226.684 137.556 222.088L135.138 182.231C135.124 181.944 135.211 181.661 135.383 181.432C135.555 181.202 135.802 181.039 136.081 180.972C142.049 179.32 147.397 175.94 151.453 171.255C155.509 166.571 158.092 160.791 158.878 154.643C162.069 135.041 152.979 110.478 150.707 104.742C132.116 114.422 104.774 105.492 97.2317 102.758C99.6492 126.087 77.8917 142.857 73.927 145.713L81.1795 217.829Z" fill="#3C4242"/>
<path d="M137.725 156.966C135.69 156.95 133.66 156.764 131.657 156.409C131.501 156.377 131.353 156.315 131.222 156.226C131.09 156.137 130.977 156.023 130.89 155.891C130.802 155.758 130.742 155.61 130.711 155.454C130.681 155.298 130.682 155.137 130.714 154.981C130.743 154.824 130.803 154.674 130.891 154.541C130.979 154.407 131.093 154.293 131.226 154.205C131.359 154.117 131.509 154.057 131.666 154.028C131.823 153.999 131.984 154.002 132.14 154.038C132.14 154.038 140.191 155.586 143.986 153.312C144.566 150.166 136.951 139.711 131.391 133.25C131.179 133.006 131.073 132.688 131.096 132.366C131.118 132.043 131.268 131.743 131.512 131.532C131.755 131.32 132.073 131.214 132.395 131.236C132.717 131.259 133.017 131.409 133.228 131.653C135.646 134.411 147.298 148.375 146.476 153.433C146.43 153.824 146.294 154.2 146.081 154.531C145.867 154.863 145.58 155.141 145.243 155.344C142.92 156.528 140.329 157.087 137.725 156.966Z" fill="#3C4242"/>
<path d="M128.925 169.985C127.458 169.988 125.993 169.858 124.549 169.598C117.698 168.381 111.512 164.74 107.119 159.337C106.974 159.055 106.946 158.726 107.041 158.422C107.136 158.119 107.346 157.865 107.627 157.716C107.91 157.568 108.24 157.535 108.546 157.625C108.853 157.716 109.113 157.922 109.271 158.2C113.339 162.965 118.938 166.165 125.105 167.251C133.276 168.582 141.399 165.581 149.28 158.321C149.393 158.2 149.53 158.103 149.682 158.037C149.834 157.971 149.998 157.938 150.164 157.938C150.33 157.938 150.494 157.972 150.646 158.039C150.798 158.105 150.934 158.202 151.047 158.323C151.16 158.444 151.247 158.588 151.302 158.744C151.358 158.901 151.38 159.067 151.369 159.232C151.357 159.398 151.312 159.559 151.235 159.706C151.159 159.853 151.053 159.983 150.924 160.088C143.768 166.67 136.419 169.985 128.925 169.985Z" fill="#3C4242"/>
<path d="M136.177 182.085C136.177 182.085 115.097 186.127 102.671 183.779C102.671 183.779 117.998 214.32 138.208 212.819L136.177 182.085Z" fill="#3C4242"/>
<path d="M136.83 214.126C116.837 214.126 102.26 185.57 101.631 184.312C101.536 184.111 101.497 183.887 101.518 183.666C101.54 183.444 101.62 183.233 101.752 183.053C101.883 182.87 102.065 182.728 102.276 182.647C102.486 182.565 102.716 182.547 102.937 182.594C115.024 184.868 135.79 180.948 136.008 180.9C136.177 180.867 136.351 180.872 136.518 180.914C136.685 180.956 136.841 181.033 136.975 181.142C137.108 181.246 137.218 181.378 137.297 181.528C137.376 181.678 137.423 181.843 137.434 182.013L139.465 212.771C139.478 212.93 139.46 213.09 139.411 213.242C139.362 213.394 139.284 213.535 139.181 213.656C139.077 213.777 138.951 213.877 138.809 213.95C138.667 214.022 138.512 214.066 138.353 214.078L136.83 214.126ZM104.967 185.328C108.739 191.935 121.334 211.706 136.854 211.706L134.993 183.513C130.569 184.312 115.725 186.635 104.967 185.328Z" fill="#3C4242"/>
<path d="M258.189 183.489L310.576 180.924L284.322 292.099L227.994 297.64L258.189 183.489Z" fill="#3C4242"/>
<path d="M228.043 298.85C227.869 298.854 227.697 298.818 227.538 298.747C227.379 298.676 227.238 298.571 227.124 298.439C226.995 298.288 226.904 298.108 226.858 297.914C226.811 297.721 226.812 297.519 226.858 297.326L257.053 183.199C257.116 182.949 257.259 182.726 257.459 182.564C257.66 182.403 257.908 182.311 258.165 182.303L310.528 179.714C310.717 179.698 310.906 179.73 311.079 179.806C311.252 179.882 311.403 180 311.519 180.149C311.642 180.295 311.728 180.467 311.77 180.652C311.812 180.838 311.809 181.03 311.761 181.214L285.531 292.389C285.472 292.634 285.337 292.855 285.147 293.019C284.956 293.184 284.718 293.285 284.468 293.309L228.043 298.85ZM259.18 184.675L229.639 296.261L283.404 290.985L309.078 182.206L259.18 184.675Z" fill="#3C4242"/>
<path d="M190.112 278.45C189.804 278.45 189.507 278.333 189.282 278.121C189.057 277.91 188.922 277.621 188.903 277.312C187.853 261.292 184.313 245.534 178.411 230.606C178.281 230.314 178.271 229.982 178.384 229.683C178.497 229.383 178.724 229.141 179.016 229.009C179.16 228.941 179.316 228.903 179.475 228.896C179.634 228.89 179.793 228.916 179.942 228.972C180.091 229.029 180.227 229.115 180.342 229.225C180.457 229.335 180.549 229.468 180.611 229.614C186.636 244.801 190.25 260.838 191.321 277.143C191.341 277.467 191.233 277.785 191.02 278.029C190.808 278.274 190.508 278.425 190.185 278.45H190.112Z" fill="#3C4242"/>
<path d="M107.917 131.338C107.797 131.361 107.674 131.361 107.554 131.338C107.251 131.243 106.997 131.032 106.848 130.752C106.698 130.471 106.666 130.142 106.756 129.838C107.741 126.717 109.912 124.109 112.8 122.578C114.253 122.01 115.815 121.775 117.37 121.888C118.926 122.001 120.437 122.46 121.793 123.231C122.059 123.382 122.257 123.629 122.349 123.921C122.44 124.213 122.418 124.528 122.286 124.804C122.154 125.08 121.923 125.296 121.639 125.408C121.354 125.521 121.038 125.521 120.754 125.409C119.705 124.802 118.535 124.433 117.328 124.328C116.12 124.224 114.905 124.386 113.767 124.804C111.546 126.009 109.869 128.017 109.077 130.418C109.013 130.679 108.864 130.91 108.654 131.077C108.444 131.243 108.185 131.335 107.917 131.338Z" fill="#3C4242"/>
<path d="M141.399 124.175H141.182C140.866 124.11 140.588 123.925 140.408 123.658C140.227 123.391 140.158 123.064 140.215 122.747C140.405 121.752 140.822 120.815 141.435 120.009C142.047 119.203 142.838 118.55 143.744 118.101C145.872 117.254 148.579 117.931 151.456 120.085C151.686 120.282 151.834 120.558 151.87 120.858C151.906 121.159 151.829 121.462 151.653 121.709C151.477 121.955 151.215 122.126 150.919 122.188C150.623 122.251 150.314 122.199 150.054 122.045C147.806 120.424 145.944 119.843 144.663 120.327C144.132 120.629 143.674 121.043 143.319 121.54C142.964 122.038 142.721 122.606 142.608 123.207C142.547 123.482 142.394 123.728 142.174 123.904C141.955 124.08 141.681 124.176 141.399 124.175Z" fill="#3C4242"/>
<path d="M37.4708 151.884C37.4708 151.884 40.4201 160.741 31.0644 186.393C21.7087 212.045 22.0955 231.695 45.5694 235.229C69.0433 238.762 82.7748 235.93 85.8692 215.869C88.9636 195.807 70.9048 173.785 70.9048 173.785" fill="white"/>
<path d="M60.2192 237.721C55.2536 237.659 50.2998 237.222 45.3999 236.414C36.7936 235.132 30.7015 231.574 27.3412 225.912C22.3611 217.49 23.2073 204.422 29.9279 185.957C38.9452 161.249 36.3584 152.344 36.3343 152.271C36.2835 152.112 36.2645 151.945 36.2783 151.778C36.2921 151.612 36.3385 151.45 36.4148 151.302C36.4911 151.154 36.5959 151.022 36.7231 150.914C36.8503 150.806 36.9975 150.725 37.1562 150.674C37.315 150.623 37.4822 150.604 37.6482 150.618C37.8143 150.632 37.9761 150.678 38.1242 150.754C38.2724 150.831 38.4041 150.936 38.5117 151.063C38.6194 151.19 38.701 151.338 38.7518 151.497C38.7518 151.884 41.7253 161.177 32.3212 186.804C25.8665 204.543 25.0687 216.933 29.5411 224.677C32.563 229.784 37.9057 232.833 45.8834 234.019C68.1969 237.382 81.7349 235.471 84.8051 215.748C87.7787 196.557 70.3001 174.753 70.1067 174.608C70.0044 174.486 69.9275 174.346 69.8805 174.194C69.8336 174.042 69.8175 173.883 69.8333 173.725C69.8491 173.567 69.8964 173.414 69.9724 173.274C70.0485 173.135 70.1517 173.012 70.276 172.914C70.5235 172.713 70.84 172.618 71.1569 172.65C71.4738 172.682 71.7653 172.837 71.9682 173.083C72.7177 174.003 90.3412 195.928 87.1743 216.207C84.5151 232.567 74.7484 237.721 60.2192 237.721Z" fill="#3C4242"/>
<path d="M687.488 0.319203H347.032C343.018 0.312723 339.164 1.89778 336.315 4.72766C333.465 7.55755 331.851 11.402 331.826 15.42V119.214L293.146 166.646L331.826 152.9V444.68C331.826 448.717 333.428 452.588 336.279 455.443C339.131 458.298 342.999 459.901 347.032 459.901H687.488C691.521 459.901 695.389 458.298 698.24 455.443C701.092 452.588 702.694 448.717 702.694 444.68V15.42C702.662 11.4039 701.046 7.56323 698.198 4.73471C695.35 1.90618 691.5 0.319076 687.488 0.319203Z" fill="white"/>
<path d="M290.076 297.64C309.416 270.173 309.416 270.173 308.328 260.711C307.482 253.451 303.855 247.087 300.06 241.085C295.225 233.438 284.66 221.725 280.72 237.334C278.762 244.836 275.74 254.056 277.819 261.752C279.753 268.867 285.071 274.699 287.997 281.378" fill="white"/>
<path d="M290.076 298.85C289.825 298.849 289.581 298.773 289.374 298.633C289.116 298.443 288.941 298.161 288.886 297.844C288.832 297.528 288.903 297.203 289.084 296.939C308.183 269.859 308.183 269.859 307.119 260.856C306.297 253.596 302.501 247.208 299.02 241.738C295.539 236.269 290.027 230.389 286.449 230.921C284.032 231.308 282.533 234.793 281.783 237.649L281.082 240.262C279.245 247.135 277.118 254.927 278.907 261.437C280.235 265.504 282.14 269.359 284.564 272.884C286.225 275.45 287.711 278.126 289.012 280.894C289.14 281.189 289.146 281.523 289.028 281.823C288.91 282.122 288.678 282.363 288.383 282.491C288.088 282.62 287.755 282.625 287.455 282.507C287.156 282.389 286.916 282.157 286.788 281.862C285.528 279.195 284.091 276.616 282.485 274.142C279.936 270.417 277.941 266.341 276.562 262.042C274.628 254.903 276.828 246.772 278.762 239.609L279.463 237.019C280.792 231.841 283.016 228.985 286.062 228.501C292.372 227.509 299.141 237.358 301.075 240.407C304.701 246.119 308.618 252.846 309.536 260.542C310.697 270.464 310.697 270.464 291.067 298.318C290.958 298.482 290.811 298.617 290.638 298.709C290.465 298.802 290.272 298.851 290.076 298.85Z" fill="#3C4242"/>
<path d="M52.6289 334.86C52.6289 334.86 139.417 415.156 164.221 405.984C189.024 396.812 217.913 358.528 234.933 331.835C251.952 305.142 273.999 268.262 277.239 251.83C280.478 235.398 275.402 223.129 269.261 226.202C263.121 229.275 240.13 251.806 240.13 251.806C240.13 251.806 247.89 229.784 244.264 229.687C240.638 229.59 229.953 239.367 226.399 270.827L152.665 345.847L92.2276 286.847" fill="white"/>
<path d="M159.821 407.871C130.158 407.871 55.1671 338.829 51.8068 335.731C51.6935 335.619 51.6035 335.485 51.5422 335.337C51.4808 335.19 51.4492 335.032 51.4492 334.872C51.4492 334.712 51.4808 334.554 51.5422 334.407C51.6035 334.259 51.6935 334.125 51.8068 334.013C52.0368 333.79 52.3446 333.665 52.665 333.665C52.9854 333.665 53.2932 333.79 53.5232 334.013C53.7408 334.231 75.4741 354.293 99.9392 372.951C132.044 397.441 154.14 408.501 163.882 404.895C191.998 394.513 224.658 345.895 233.99 331.23C251.468 303.811 272.96 267.729 276.127 251.66C278.544 239.923 276.32 230.219 272.911 227.63C272.502 227.272 271.991 227.049 271.45 226.993C270.909 226.936 270.364 227.049 269.889 227.315C263.967 230.268 241.266 252.532 241.024 252.749C240.834 252.942 240.583 253.062 240.313 253.088C240.044 253.115 239.774 253.046 239.55 252.895C239.317 252.754 239.14 252.538 239.048 252.283C238.955 252.027 238.953 251.748 239.042 251.491C242.016 243.045 244.627 233.075 244.022 230.994C241.605 231.502 231.234 239.343 227.656 270.899C227.613 271.168 227.496 271.42 227.317 271.625L153.584 346.645C153.473 346.758 153.342 346.848 153.196 346.909C153.051 346.97 152.895 347.001 152.737 347.001C152.58 347.001 152.424 346.97 152.278 346.909C152.133 346.848 152.002 346.758 151.891 346.645L91.4538 287.646C91.2229 287.421 91.0907 287.114 91.0862 286.792C91.0817 286.469 91.2052 286.159 91.4296 285.928C91.654 285.697 91.9609 285.564 92.2828 285.56C92.6047 285.555 92.9152 285.679 93.146 285.903L152.834 343.983L225.359 270.101C229.01 238.81 239.864 228.428 244.336 228.428C244.651 228.427 244.961 228.506 245.236 228.659C245.511 228.811 245.742 229.032 245.908 229.3C247.528 231.72 245.062 240.77 242.91 247.425C249.679 240.916 263.991 227.436 268.802 225.04C269.683 224.573 270.681 224.375 271.673 224.469C272.666 224.564 273.609 224.947 274.386 225.573C279.076 229.179 280.817 240.286 278.496 251.999C275.256 268.455 253.62 304.804 236.02 332.416C223.933 351.413 192.747 396.691 164.704 407.049C163.139 407.616 161.485 407.895 159.821 407.871Z" fill="#3C4242"/>
<path d="M112.945 147.649C109.734 147.667 106.584 146.769 103.864 145.062C101.143 143.354 98.9636 140.907 97.5803 138.006C96.197 135.105 95.6668 131.87 96.0516 128.679C96.4365 125.488 97.7204 122.472 99.7535 119.984C101.787 117.496 104.485 115.638 107.533 114.628C110.582 113.617 113.855 113.496 116.969 114.278C120.084 115.06 122.912 116.713 125.123 119.044C127.335 121.375 128.838 124.288 129.457 127.442C130.323 131.813 129.433 136.35 126.98 140.069C124.527 143.787 120.71 146.389 116.354 147.31C115.231 147.531 114.09 147.644 112.945 147.649ZM112.945 116.407C111.979 116.396 111.014 116.494 110.069 116.697C107.239 117.241 104.635 118.617 102.59 120.648C100.544 122.68 99.1494 125.275 98.5833 128.103C98.0171 130.931 98.3053 133.864 99.411 136.528C100.517 139.192 102.39 141.465 104.792 143.059C107.193 144.652 110.015 145.494 112.896 145.476C115.777 145.458 118.588 144.581 120.97 142.958C123.351 141.334 125.196 139.037 126.269 136.36C127.341 133.683 127.592 130.747 126.991 127.926C126.31 124.696 124.55 121.796 122.001 119.702C119.452 117.608 116.267 116.445 112.97 116.407H112.945Z" fill="#3C4242"/>
<path d="M148.603 140.34C145.58 140.304 142.623 139.457 140.037 137.889C137.452 136.32 135.334 134.088 133.903 131.422C132.471 128.757 131.78 125.756 131.899 122.733C132.018 119.709 132.945 116.773 134.582 114.229C136.433 111.464 139.058 109.307 142.127 108.027C145.196 106.747 148.574 106.4 151.839 107.03C155.104 107.66 158.111 109.239 160.485 111.569C162.859 113.899 164.494 116.878 165.187 120.133C166.053 124.505 165.163 129.041 162.71 132.76C160.258 136.479 156.44 139.081 152.084 140.002C150.938 140.227 149.772 140.34 148.603 140.34ZM148.603 109.098C147.629 109.099 146.657 109.196 145.702 109.389C142.872 109.933 140.269 111.308 138.223 113.34C136.178 115.371 134.783 117.967 134.217 120.795C133.651 123.623 133.939 126.556 135.044 129.22C136.15 131.883 138.023 134.157 140.425 135.75C142.827 137.344 145.648 138.186 148.529 138.167C151.411 138.149 154.222 137.273 156.603 135.649C158.985 134.026 160.83 131.729 161.902 129.052C162.974 126.375 163.226 123.438 162.625 120.617C161.944 117.392 160.188 114.494 157.644 112.401C155.1 110.307 151.92 109.142 148.627 109.098H148.603Z" fill="#3C4242"/>
<path d="M127.982 127.466C127.761 127.471 127.543 127.412 127.353 127.297C127.217 127.217 127.098 127.111 127.003 126.984C126.909 126.858 126.84 126.714 126.802 126.56C126.764 126.407 126.756 126.248 126.781 126.091C126.805 125.935 126.86 125.786 126.943 125.651C127.282 125.107 127.727 124.637 128.25 124.266C128.773 123.896 129.364 123.633 129.989 123.494C130.615 123.354 131.261 123.34 131.892 123.453C132.523 123.566 133.125 123.803 133.663 124.151C133.907 124.318 134.082 124.569 134.153 124.856C134.225 125.144 134.189 125.447 134.052 125.71C133.915 125.972 133.686 126.175 133.41 126.28C133.133 126.385 132.828 126.385 132.551 126.28C130.134 125.046 129.118 126.692 129.022 126.885C128.913 127.064 128.76 127.211 128.578 127.313C128.396 127.414 128.191 127.467 127.982 127.466Z" fill="#3C4242"/>
<path d="M97.0625 130.854L68.0283 134.387L97.0625 130.854Z" fill="white"/>
<path d="M68.0286 135.597C67.708 135.616 67.3929 135.507 67.1526 135.294C66.9123 135.081 66.7665 134.781 66.7473 134.46C66.7281 134.139 66.837 133.823 67.0501 133.583C67.2631 133.342 67.5629 133.196 67.8835 133.177L96.8935 129.62C97.0511 129.6 97.2111 129.611 97.3641 129.654C97.517 129.697 97.6598 129.771 97.7838 129.87C97.9079 129.969 98.0107 130.093 98.0862 130.233C98.1616 130.373 98.2082 130.526 98.2232 130.685C98.2643 131.002 98.178 131.323 97.9832 131.577C97.7883 131.831 97.5008 131.998 97.1836 132.04L68.1736 135.573L68.0286 135.597Z" fill="#3C4242"/>
<path d="M70.1794 144.938C70.1794 144.938 60.2676 111.421 73.5397 88.6008C84.5393 69.6764 113.477 56.5842 134.775 55.8824C129.649 51.6323 123.416 48.9389 116.811 48.1199C110.205 47.3009 103.504 48.3905 97.4971 51.2602C75.4012 60.9402 63.6521 71.8544 59.2765 91.6984C53.0393 120.4 70.1794 144.938 70.1794 144.938Z" fill="#3C4242"/>
<path d="M70.1796 146.1C69.9865 146.097 69.7966 146.05 69.6247 145.962C69.4528 145.874 69.3035 145.747 69.1884 145.592C69.0192 145.326 51.8066 120.279 58.1163 91.408C62.3227 72.048 73.2498 60.4804 97.038 50.0986C103.283 47.1611 110.231 46.0565 117.078 46.9132C123.924 47.7699 130.388 50.5527 135.718 54.9386C135.887 55.1054 136.004 55.3174 136.055 55.5492C136.107 55.781 136.09 56.0227 136.008 56.2454C135.928 56.4709 135.781 56.6663 135.587 56.8049C135.392 56.9435 135.159 57.0185 134.92 57.0198C114.42 57.77 85.6274 70.233 74.5794 89.23C61.7183 111.325 71.2433 144.261 71.34 144.6C71.4204 144.874 71.4013 145.167 71.2863 145.428C71.1713 145.69 70.9677 145.902 70.7114 146.027C70.5403 146.085 70.3599 146.11 70.1796 146.1ZM112.897 49.058C107.76 49.0951 102.687 50.2079 98.005 52.325C75.0146 62.3922 64.4985 73.5 60.4612 91.9646C56.424 110.429 62.6128 127.902 67.1577 137.122C65.0303 125.627 62.9996 104.331 72.5004 87.9958C83.3791 69.2892 110.794 56.681 131.536 54.866C126.039 51.1207 119.546 49.1141 112.897 49.1064V49.058Z" fill="#3C4242"/>
<path d="M85.9904 139.034C85.9904 139.034 71.9206 112.22 59.1803 130.467C46.4401 148.714 67.8591 166.622 80.0433 164.202" fill="white"/>
<path d="M77.6494 165.654C70.6628 165.654 62.3466 160.814 57.6808 153.554C55.2257 150.041 53.9514 145.838 54.0427 141.552C54.1339 137.266 55.586 133.121 58.1885 129.717C61.5488 124.877 65.441 122.457 69.5266 122.82C79.1966 123.425 86.7392 137.775 87.0776 138.38C87.2221 138.67 87.2473 139.004 87.1478 139.312C87.0484 139.62 86.8322 139.876 86.5458 140.026C86.2633 140.171 85.9349 140.199 85.6318 140.104C85.3287 140.009 85.0752 139.798 84.9261 139.518C84.9261 139.372 77.6736 125.748 69.3815 125.24C66.1421 125.022 63.0235 127.006 60.1709 131.096C57.8673 134.118 56.5796 137.793 56.4927 141.593C56.4059 145.393 57.5243 149.123 59.6874 152.247C64.3773 159.507 73.3946 164.202 79.801 162.943C80.1179 162.886 80.4446 162.955 80.7111 163.136C80.9776 163.317 81.1629 163.595 81.2273 163.911C81.2838 164.226 81.2139 164.55 81.0327 164.812C80.8516 165.075 80.5739 165.256 80.2603 165.315C79.4034 165.514 78.5288 165.628 77.6494 165.654Z" fill="#3C4242"/>
<path d="M86.2315 282.588C86.0642 282.586 85.8989 282.551 85.7453 282.485C85.5917 282.418 85.4529 282.322 85.3371 282.201C85.047 281.862 55.3842 249.676 35.0289 241.884C34.8639 241.842 34.7095 241.766 34.576 241.66C34.4424 241.555 34.3326 241.422 34.2537 241.271C34.1749 241.12 34.1288 240.954 34.1185 240.784C34.1081 240.614 34.1337 240.444 34.1937 240.284C34.2536 240.125 34.3465 239.98 34.4663 239.859C34.5861 239.738 34.73 239.643 34.8887 239.582C35.0475 239.52 35.2174 239.493 35.3873 239.502C35.5573 239.511 35.7235 239.555 35.875 239.633C56.7864 247.74 85.8931 279.2 87.126 280.555C87.349 280.785 87.4737 281.094 87.4737 281.414C87.4737 281.735 87.349 282.043 87.126 282.273C87.0058 282.383 86.8646 282.468 86.7109 282.522C86.5572 282.576 86.3941 282.599 86.2315 282.588Z" fill="#3C4242"/>
</svg>
