<svg width="63" height="22" viewBox="0 0 63 22" fill="none" xmlns="http://www.w3.org/2000/svg">
<g filter="url(#filter0_d_261_718)">
<path d="M24.7008 5.70314C24.56 6.7593 23.7151 6.7593 22.9406 6.7593H22.5181L22.8701 4.71739C22.8701 4.57657 23.011 4.50616 23.1518 4.50616H23.363C23.9263 4.50616 24.4192 4.50616 24.7008 4.78781C24.7008 5.06945 24.7008 5.35109 24.7008 5.70314ZM24.3488 2.88672H21.3211C21.1099 2.88672 20.9691 3.02754 20.8986 3.23877L19.7017 10.9839C19.7017 11.1248 19.7721 11.2656 19.9833 11.2656H21.3915C21.6028 11.2656 21.7436 11.1248 21.814 10.9135L22.166 8.80121C22.166 8.58998 22.3773 8.44916 22.5885 8.44916H23.5742C25.5457 8.44916 26.6723 7.46341 27.0244 5.56232C27.1652 4.71739 27.0244 4.0837 26.6723 3.59083C26.109 3.16836 25.3345 2.88672 24.3488 2.88672Z" fill="#263577"/>
<path d="M31.319 8.51963C31.1782 9.36455 30.5445 9.92784 29.6996 9.92784C29.2771 9.92784 28.9251 9.78702 28.7138 9.50538C28.5026 9.22373 28.4322 8.87168 28.5026 8.51963C28.6434 7.6747 29.2771 7.11141 30.1221 7.11141C30.5445 7.11141 30.8966 7.25223 31.1078 7.53388C31.2486 7.74511 31.3894 8.09716 31.319 8.51963ZM33.2905 5.7032H31.8823C31.7415 5.7032 31.6711 5.77361 31.6007 5.91443L31.5303 6.3369L31.4599 6.19607C31.1782 5.77361 30.4741 5.56238 29.77 5.56238C28.1506 5.56238 26.8128 6.75936 26.5311 8.44922C26.3903 9.29414 26.6015 10.0687 27.0944 10.6319C27.5168 11.1248 28.1506 11.3361 28.9251 11.3361C30.1925 11.3361 30.8966 10.4911 30.8966 10.4911L30.8262 10.9136C30.8262 11.0544 30.8966 11.1952 31.1078 11.1952H32.3752C32.5864 11.1952 32.7272 11.0544 32.7977 10.8432L33.5722 5.91443C33.5722 5.84402 33.5018 5.7032 33.2905 5.7032Z" fill="#263577"/>
<path d="M40.9656 5.70325H39.4869C39.3461 5.70325 39.2053 5.77366 39.1349 5.91448L37.1634 8.87173L36.3184 6.0553C36.248 5.84407 36.1072 5.77366 35.896 5.77366H34.4878C34.3469 5.77366 34.2061 5.91448 34.2765 6.12571L35.896 10.7728L34.4173 12.8851C34.2765 13.026 34.4174 13.3076 34.6286 13.3076H36.1072C36.248 13.3076 36.3889 13.2372 36.4593 13.0964L41.2472 6.12571C41.3176 5.91448 41.1768 5.70325 40.9656 5.70325Z" fill="#263577"/>
<path d="M46.1054 5.70314C45.9645 6.7593 45.1196 6.7593 44.3451 6.7593H43.9226L44.2747 4.71739C44.2747 4.57657 44.4155 4.50616 44.5563 4.50616H44.7676C45.3308 4.50616 45.8237 4.50616 46.1054 4.78781C46.1758 5.06945 46.1758 5.35109 46.1054 5.70314ZM45.7533 2.88672H42.7257C42.5144 2.88672 42.3736 3.02754 42.3032 3.23877L41.1062 10.9839C41.1062 11.1248 41.1766 11.2656 41.3879 11.2656H42.9369C43.0777 11.2656 43.2185 11.1952 43.2185 10.9839L43.5706 8.80121C43.5706 8.58998 43.7818 8.44916 43.993 8.44916H44.9788C46.9503 8.44916 48.0769 7.46341 48.4289 5.56232C48.5697 4.71739 48.4289 4.0837 48.0769 3.59083C47.584 3.16836 46.8095 2.88672 45.7533 2.88672Z" fill="#2199D6"/>
<path d="M52.7946 8.51963C52.6538 9.36455 52.0201 9.92784 51.1752 9.92784C50.7527 9.92784 50.4007 9.78702 50.1894 9.50538C49.9782 9.22373 49.9078 8.87168 49.9782 8.51963C50.119 7.6747 50.7527 7.11141 51.5976 7.11141C52.0201 7.11141 52.3722 7.25223 52.5834 7.53388C52.7242 7.74511 52.865 8.09716 52.7946 8.51963ZM54.7661 5.7032H53.3579C53.2171 5.7032 53.1467 5.77361 53.0762 5.91443L53.0059 6.3369L52.9354 6.19607C52.6538 5.77361 51.9497 5.56238 51.2456 5.56238C49.6261 5.56238 48.2883 6.75936 48.0067 8.44922C47.8659 9.29414 48.0771 10.0687 48.57 10.6319C48.9924 11.1248 49.6261 11.3361 50.4007 11.3361C51.668 11.3361 52.3721 10.4911 52.3721 10.4911L52.3017 10.9136C52.3017 11.0544 52.3722 11.1952 52.5834 11.1952H53.8508C54.062 11.1952 54.2028 11.0544 54.2732 10.8432L55.0478 5.91443C55.0478 5.84402 54.9069 5.7032 54.7661 5.7032Z" fill="#2199D6"/>
<path d="M56.4559 3.09795L55.1885 10.9839C55.1885 11.1248 55.2589 11.2656 55.4701 11.2656H56.7375C56.9488 11.2656 57.0896 11.1248 57.16 10.9135L58.357 3.16836C58.357 3.02754 58.2865 2.88672 58.0753 2.88672H56.6671C56.5967 2.88672 56.5263 3.02754 56.4559 3.09795Z" fill="#2199D6"/>
<path d="M7.16814 12.7443L7.37936 11.2657H6.88649H4.42212L6.11198 0.492895C6.11198 0.492895 6.11197 0.422485 6.18239 0.422485H6.2528H10.407C11.7448 0.422485 12.7306 0.704128 13.2235 1.26741C13.4347 1.54906 13.5755 1.8307 13.6459 2.11234C13.7163 2.4644 13.7163 2.81645 13.6459 3.30932V3.59096L13.8572 3.73179C14.0684 3.8022 14.2092 3.94302 14.35 4.08384C14.5613 4.29507 14.7021 4.57671 14.7021 4.92877C14.7725 5.28082 14.7725 5.70328 14.6317 6.19616C14.4908 6.75944 14.35 7.18191 14.1388 7.60437C13.9276 7.95642 13.6459 8.23807 13.3643 8.51971C13.0826 8.73094 12.6602 8.87176 12.3081 9.01258C11.8856 9.08299 11.4632 9.15341 10.9703 9.15341H10.6183C10.407 9.15341 10.1958 9.22381 9.98457 9.36464C9.84375 9.50546 9.70292 9.71669 9.63251 9.92792V10.0687L9.21005 12.6739V12.7443V12.8148C9.21005 12.8148 9.21004 12.8148 9.13963 12.8148H7.16814V12.7443Z" fill="#263577"/>
<path d="M14.139 3.3092C14.139 3.37961 14.139 3.45003 14.0686 3.52044C13.5053 6.33686 11.6746 7.2522 9.28064 7.2522H8.08365C7.80201 7.2522 7.52037 7.46343 7.52037 7.74508L6.88667 11.6881L6.74585 12.8146C6.74585 13.0259 6.88667 13.1667 7.02749 13.1667H9.21022C9.49186 13.1667 9.70309 12.9555 9.70309 12.7442V12.6034L10.1256 10.0686V9.92781C10.196 9.64616 10.4072 9.50534 10.6184 9.50534H10.9705C13.0828 9.50534 14.7022 8.66042 15.1247 6.19604C15.3359 5.13988 15.1951 4.29495 14.7023 3.73167C14.5614 3.59085 14.3502 3.45003 14.139 3.3092Z" fill="#2199D6"/>
<path d="M13.5756 3.09795C13.5052 3.09795 13.4348 3.02754 13.2939 3.02754C13.2235 3.02754 13.0827 2.95713 13.0123 2.95713C12.6602 2.88672 12.3082 2.88672 11.9561 2.88672H8.71724C8.64683 2.88672 8.57642 2.88672 8.50601 2.95713C8.36519 3.02754 8.22437 3.16836 8.22437 3.30918L7.52026 7.67464V7.81546C7.59067 7.53382 7.8019 7.32259 8.08354 7.32259H9.28053C11.6745 7.32259 13.5052 6.33684 14.0684 3.59083C14.0684 3.52041 14.0684 3.45 14.1389 3.37959C13.998 3.30918 13.8572 3.23877 13.7164 3.16836C13.646 3.09795 13.5756 3.09795 13.5756 3.09795Z" fill="#252C5E"/>
<path d="M8.22464 3.3093C8.22464 3.16848 8.36546 3.02766 8.50628 2.95725C8.57669 2.95725 8.6471 2.88684 8.71751 2.88684H11.9564C12.3084 2.88684 12.7309 2.88683 13.0126 2.95725C13.083 2.95725 13.2238 2.95725 13.2942 3.02766C13.3646 3.02766 13.435 3.09807 13.5758 3.09807C13.6463 3.09807 13.6463 3.09807 13.7167 3.16848C13.8575 3.23889 13.9983 3.3093 14.1391 3.37971C14.28 2.32355 14.1391 1.61944 13.5758 0.985748C12.9421 0.281641 11.8156 0 10.4074 0H6.25314C5.9715 0 5.68985 0.21123 5.68985 0.492872L4 11.3361C4 11.5473 4.14082 11.7586 4.35205 11.7586H6.88683L7.52053 7.67476L8.22464 3.3093Z" fill="#263577"/>
</g>
<defs>
<filter id="filter0_d_261_718" x="0" y="0" width="62.3569" height="21.3076" filterUnits="userSpaceOnUse" color-interpolation-filters="sRGB">
<feFlood flood-opacity="0" result="BackgroundImageFix"/>
<feColorMatrix in="SourceAlpha" type="matrix" values="0 0 0 0 0 0 0 0 0 0 0 0 0 0 0 0 0 0 127 0" result="hardAlpha"/>
<feOffset dy="4"/>
<feGaussianBlur stdDeviation="2"/>
<feComposite in2="hardAlpha" operator="out"/>
<feColorMatrix type="matrix" values="0 0 0 0 0 0 0 0 0 0 0 0 0 0 0 0 0 0 0.25 0"/>
<feBlend mode="normal" in2="BackgroundImageFix" result="effect1_dropShadow_261_718"/>
<feBlend mode="normal" in="SourceGraphic" in2="effect1_dropShadow_261_718" result="shape"/>
</filter>
</defs>
</svg>
